<svg xmlns="http://www.w3.org/2000/svg" font-family="Georgia, 'Times New Roman', serif" viewBox="0 0 880 480"><defs><marker id="arrow" markerHeight="6" markerWidth="6" orient="auto" refX="9" refY="5" viewBox="0 0 10 10"><path fill="#1a1a1a" d="M0,0 L10,5 L0,10 z"/></marker><style>.box,.hot{fill:#faf6ef;stroke:#1a1a1a;stroke-width:1.5}.hot{fill:#fff1d6;stroke:#c0392b}.label{font-size:14px;font-weight:600;fill:#1a1a1a}.content{font-size:12px;fill:#333;font-family:&apos;Menlo&apos;,monospace}.caption{font-size:11px;fill:#555;font-style:italic}.title{font-size:16px;font-weight:700;fill:#1a1a1a}</style></defs><text x="440" y="28" class="title" text-anchor="middle">text → phonemes → mel → waveform</text><rect width="160" height="70" x="40" y="60" class="box"/><text x="120" y="82" class="label" text-anchor="middle">text frontend</text><text x="120" y="105" class="content" text-anchor="middle">normalize + G2P</text><text x="120" y="121" class="caption" text-anchor="middle">&quot;6 pm&quot; → &quot;six p m&quot;</text><line x1="205" x2="228" y1="95" y2="95" stroke="#1a1a1a" stroke-width="1.5" marker-end="url(#arrow)"/><rect width="180" height="70" x="232" y="60" class="box"/><text x="322" y="82" class="label" text-anchor="middle">acoustic model</text><text x="322" y="105" class="content" text-anchor="middle">phones → mel [T, 80]</text><text x="322" y="121" class="caption" text-anchor="middle">FastSpeech / VITS / F5</text><line x1="417" x2="440" y1="95" y2="95" stroke="#1a1a1a" stroke-width="1.5" marker-end="url(#arrow)"/><rect width="160" height="70" x="444" y="60" class="hot"/><text x="524" y="82" class="label" text-anchor="middle">vocoder</text><text x="524" y="105" class="content" text-anchor="middle">mel → wav [T·256]</text><text x="524" y="121" class="caption" text-anchor="middle">HiFi-GAN, BigVGAN</text><line x1="609" x2="632" y1="95" y2="95" stroke="#1a1a1a" stroke-width="1.5" marker-end="url(#arrow)"/><rect width="200" height="70" x="636" y="60" class="box"/><text x="736" y="82" class="label" text-anchor="middle">waveform 24 kHz</text><text x="736" y="105" class="content" text-anchor="middle">float32 in [-1, 1]</text><text x="736" y="121" class="caption" text-anchor="middle">speaker.wav</text><rect width="800" height="130" x="40" y="160" class="box"/><text x="440" y="182" class="label" text-anchor="middle">open-source TTS timeline</text><line x1="80" x2="820" y1="240" y2="240" stroke="#1a1a1a" stroke-width="1"/><circle cx="130" cy="240" r="5" fill="#1a1a1a"/><text x="130" y="220" class="content" font-size="11" text-anchor="middle">Tacotron 2</text><text x="130" y="265" class="caption" font-size="10" text-anchor="middle">2017 · AR seq2seq</text><circle cx="260" cy="240" r="5" fill="#1a1a1a"/><text x="260" y="220" class="content" font-size="11" text-anchor="middle">FastSpeech 2</text><text x="260" y="265" class="caption" font-size="10" text-anchor="middle">2020 · non-AR</text><circle cx="390" cy="240" r="5" fill="#1a1a1a"/><text x="390" y="220" class="content" font-size="11" text-anchor="middle">VITS</text><text x="390" y="265" class="caption" font-size="10" text-anchor="middle">2021 · end-to-end flow</text><circle cx="520" cy="240" r="5" fill="#1a1a1a"/><text x="520" y="220" class="content" font-size="11" text-anchor="middle">XTTS v2</text><text x="520" y="265" class="caption" font-size="10" text-anchor="middle">2024 · voice cloning</text><circle cx="650" cy="240" r="6" fill="#c0392b"/><text x="650" y="220" class="content" font-size="11" text-anchor="middle">F5-TTS</text><text x="650" y="265" class="caption" font-size="10" text-anchor="middle">2024 · flow matching</text><circle cx="780" cy="240" r="6" fill="#c0392b"/><text x="780" y="220" class="content" font-size="11" text-anchor="middle">Kokoro</text><text x="780" y="265" class="caption" font-size="10" text-anchor="middle">2024 · 82M CPU</text><rect width="800" height="150" x="40" y="310" class="hot"/><text x="440" y="332" class="label" text-anchor="middle">2026 open-source leaderboard (LibriTTS test-clean)</text><text x="60" y="360" class="content">model</text><text x="300" y="360" class="content">UTMOS</text><text x="440" y="360" class="content">CER via Whisper</text><text x="700" y="360" class="content">params</text><line x1="60" x2="820" y1="370" y2="370" stroke="#1a1a1a" stroke-width="1"/><text x="60" y="390" class="content">ground truth</text><text x="300" y="390" class="content">4.08</text><text x="440" y="390" class="content">1.2%</text><text x="700" y="390" class="content">—</text><text x="60" y="410" class="content">F5-TTS</text><text x="300" y="410" class="content">3.95</text><text x="440" y="410" class="content">2.1%</text><text x="700" y="410" class="content">335M</text><text x="60" y="430" class="content">Kokoro v0.19</text><text x="300" y="430" class="content">3.87</text><text x="440" y="430" class="content">1.8%</text><text x="700" y="430" class="content">82M</text><text x="60" y="450" class="content">XTTS v2</text><text x="300" y="450" class="content">3.81</text><text x="440" y="450" class="content">3.5%</text><text x="700" y="450" class="content">470M</text></svg>